<svg viewBox="0 0 510 510" xmlns="http://www.w3.org/2000/svg">
  <title>
    512_mono_light
  </title>
  <g fill="none" fill-rule="evenodd">
    <rect fill="#FFF" width="510" height="510" rx="8"/>
    <path d="M434.53 172.254l20.696-20.626a2 2 0 012.823 0l14.105 14.057a2 2 0 01.004 2.829l-.004.004-20.491 20.425c32.598 39.828 28.993 97.872-7.388 133.208-19.965 18.906-43.922 27.862-68.878 27.862-19.372 0-43.39-7.82-63.201-22.062l-25.731 25.646a2 2 0 01-2.824 0l-14.104-14.058a2 2 0 01-.005-2.828l.005-.005 24.807-24.725a3962.358 3962.358 0 01-20.508-20.734l-1.002-1.021-1.278-1.305-1.277-1.305a1702.005 1702.005 0 01-14.881-15.388l-.786-.825-47.915 49.753c-21.94 21.909-48.662 33.4-73.869 33.832-25.21.431-47.137-10.63-66.732-29.91-40.33-39.671-39.925-104.455 0-144.32 20.177-19.26 43.824-24.556 66.732-24.783 29.056-.287 53.904 7.96 74.61 28.857a7477.2 7477.2 0 0123.706 23.53l.647.646 1.027 1.026 1.089 1.087 1.027 1.027 1.604 1.602.913.913.596.594.88.878 1.164 1.16.225.225.452.45c3.328 3.31 6.973 6.907 13.401 13.197l.443.433 48.171-46.594c21.937-21.908 47.138-33.564 72.345-33.994 21.18-.362 41.747 7.339 59.401 21.242zm-301.462 8.598l-.665.001c-15.516.37-34.418 6.919-47.31 20.758-25.784 27.68-26.134 71.782-.18 101.634 12.977 14.925 31.843 22.16 48.241 21.883 16.22-.276 33.675-7.598 51.1-24.737l.563-.557 46.835-48.333c-18.6-18.232-37.388-35.324-56.022-52.987-12.403-10.99-26.85-17.407-41.897-17.655l-.665-.007zm297.643 28.972l-97.828 97.508c14.798 12.14 29.481 17.473 43.27 17.707 6.226.106 12.41-.8 18.505-2.768 9.939-3.208 19.637-9.239 28.882-18.309 26.043-25.549 26.535-66.176 7.171-94.138zm-96.982-11.243c-18.611 17.642-37.58 34.71-56.158 52.92l38.136 39.186 98.136-97.813c-11.537-7.836-25.208-11.653-36.94-11.932-15.506-.12-30.422 6.339-43.174 17.639z" fill="#040D21" fill-rule="nonzero"/>
  </g>
</svg>
