<svg viewBox="0 0 510 510" xmlns="http://www.w3.org/2000/svg">
  <title>eximium</title>
  <g fill="none" fill-rule="evenodd">
    <rect fill="#040D21" width="510" height="510" rx="8"/>
    <path d="M435.073 171.67l20.098-20.022a2 2 0 012.823 0l14.11 14.056a2 2 0 01.005 2.828l-.006.005-19.998 19.924c32.122 39.783 28.386 97.42-7.83 132.57-19.965 18.893-43.922 27.843-68.878 27.843-19.179 0-42.912-7.66-62.608-21.623l-26.27 26.17a2 2 0 01-2.823 0l-14.109-14.056a2 2 0 01-.005-2.829l.005-.005 25.109-25.013a2143.01 2143.01 0 01-21.278-20.842l-.939-.934a828.753 828.753 0 01-1.877-1.874l-1.266-1.267c-4.743-4.754-9.403-9.496-13.52-13.807l-.816-.856-48.303 48.099c-21.94 21.894-48.662 33.377-73.869 33.808-25.21.432-47.137-10.623-66.732-29.888-40.33-39.644-39.925-104.383 0-144.22C86.273 160.49 110.086 152.54 133 152.54c24 0 48 3.482 75 31.342 8.35 8.506 11.088 11.349 13.878 14.183l.387.393.26.263a479.45 479.45 0 002.108 2.122l.52.522.508.506.265.265.135.135.277.275c4.215 4.2 11.325 11.223 27.724 27.452l.55.545 48.171-46.561c21.937-21.894 47.138-33.541 72.345-33.97 21.398-.367 42.17 7.492 59.945 21.657zm-302.005 8.161l-.665.002c-15.516.369-34.418 6.913-47.31 20.743-25.784 27.66-26.134 71.731-.18 101.562 12.977 14.916 31.843 22.146 48.241 21.868 16.22-.276 33.675-7.592 51.1-24.72l.563-.555 46.835-48.3c-18.6-18.22-37.388-35.3-56.022-52.95-12.403-10.983-26.85-17.395-41.897-17.643l-.665-.007zm298.047 29.54l-97.674 97.306c14.609 11.81 29.096 17.01 42.712 17.24 6.226.106 12.41-.8 18.505-2.765 9.939-3.206 19.637-9.233 28.882-18.296 25.861-25.353 26.526-65.564 7.575-93.485zm-97.386-11.824c-18.611 17.63-37.58 34.687-56.158 52.884l38.627 39.664 98.225-97.852c-11.657-8.1-25.59-12.038-37.52-12.322-15.506-.12-30.422 6.334-43.174 17.626z" fill="#FFF" fill-rule="nonzero"/>
  </g>
</svg>
