<svg viewBox="0 0 510 510" xmlns="http://www.w3.org/2000/svg">
  <title>eximium</title>
  <defs>
    <linearGradient x1="10.288%" y1="49.753%" x2="89.312%" y2="49.63%" id="a">
      <stop stop-color="#040D21" offset="0%"/>
      <stop stop-color="#BB61B6" offset="24.069%"/>
      <stop stop-color="#7A5EDC" offset="74.364%"/>
      <stop stop-color="#040D21" offset="100%"/>
    </linearGradient>
  </defs>
  <g fill="none" fill-rule="evenodd">
    <rect fill="#FFF" width="510" height="510" rx="8"/>
    <path d="M435.073 173.33l20.098-20.023a2 2 0 012.823 0l14.11 14.056a2 2 0 01.005 2.828l-.006.006-19.998 19.923c32.122 39.783 28.386 97.42-7.83 132.57-19.965 18.894-43.922 27.843-68.878 27.843-19.179 0-42.912-7.66-62.608-21.623l-26.27 26.17a2 2 0 01-2.823 0l-14.109-14.056a2 2 0 01-.005-2.828l.005-.006 25.109-25.013a2143.01 2143.01 0 01-21.278-20.842l-.939-.934c-.626-.623-1.252-1.248-1.877-1.873l-1.266-1.268c-4.743-4.754-9.403-9.496-13.52-13.806l-.816-.856-48.303 48.098c-21.94 21.894-48.662 33.378-73.869 33.809-25.21.43-47.137-10.623-66.732-29.888-40.33-39.645-39.925-104.384 0-144.221C86.273 162.15 110.086 154.2 133 154.2c24 0 48 3.482 75 31.342 8.35 8.506 11.088 11.349 13.878 14.183l.387.393.26.264c.653.661 1.333 1.345 2.108 2.122l.52.521.508.507.265.264.135.135.277.276c4.215 4.2 11.325 11.223 27.724 27.452l.55.544 48.171-46.56c21.937-21.895 47.138-33.542 72.345-33.971 21.398-.366 42.17 7.492 59.945 21.657zm-302.005 8.16l-.665.002c-15.516.37-34.418 6.913-47.31 20.743-25.784 27.66-26.134 71.732-.18 101.563 12.977 14.915 31.843 22.145 48.241 21.868 16.22-.276 33.675-7.593 51.1-24.72l.563-.556 46.835-48.3c-18.6-18.22-37.388-35.299-56.022-52.95-12.403-10.983-26.85-17.395-41.897-17.642l-.665-.007zm298.047 29.54l-97.674 97.307c14.609 11.81 29.096 17.009 42.712 17.24 6.226.105 12.41-.8 18.505-2.766 9.939-3.206 19.637-9.232 28.882-18.296 25.861-25.353 26.526-65.564 7.575-93.485zm-97.386-11.823c-18.611 17.63-37.58 34.686-56.158 52.883l38.627 39.664 98.225-97.852c-11.657-8.1-25.59-12.038-37.52-12.322-15.506-.12-30.422 6.335-43.174 17.627z" fill="url(#a)" fill-rule="nonzero"/>
  </g>
</svg>
