<svg viewBox="0 0 510 510" xmlns="http://www.w3.org/2000/svg">
  <title>
    512_dark
  </title>
  <defs>
    <linearGradient x1="21.797%" y1="39.309%" x2="78.972%" y2="60.691%" id="a">
      <stop stop-color="#FEADDD" offset="0%"/>
      <stop stop-color="#FF6BC3" offset="18.878%"/>
      <stop stop-color="#9F59E8" offset="47.307%"/>
      <stop stop-color="#568DF1" stop-opacity=".8" offset="82.537%"/>
      <stop stop-color="#B7FEE3" stop-opacity=".8" offset="100%"/>
    </linearGradient>
  </defs>
  <g fill="none" fill-rule="evenodd">
    <rect fill="#040D21" width="510" height="510" rx="8"/>
    <path d="M437.506 174.395l23.415-22.593a2.005 2.005 0 012.829.05l13.865 14.346a1.998 1.998 0 01-.05 2.827l-23.52 22.697c30.015 39.786 25.7 95.95-9.77 130.48-19.965 18.95-43.922 27.925-68.878 27.925-19.26 0-43.113-7.747-62.858-21.865l-23.77 22.936a2.005 2.005 0 01-2.828-.05l-13.866-14.346a1.998 1.998 0 01.047-2.827h.003l22.332-21.546c-9.889-9.59-26.816-26.174-38.915-38.896l-.542-.57-48.303 48.242c-21.94 21.959-48.662 33.477-73.869 33.91-25.21.432-47.137-10.656-66.732-29.978-40.33-39.763-39.925-104.696 0-144.652 20.177-19.304 43.99-27.277 66.904-27.277 24 0 48 3.492 75 31.435 7.98 8.153 10.834 11.119 13.506 13.847l.267.272.266.272.268.272a629.259 629.259 0 003.69 3.716l.869.869.133.133.273.272.14.14.429.428.76.756.319.318c4.486 4.466 11.703 11.62 25.201 25.019l.49.487 48.172-46.7c21.937-21.96 47.138-33.641 72.345-34.072 22.382-.384 44.08 8.257 62.378 23.723zM133.06 180.58l-.656.001c-15.516.37-34.418 6.934-47.31 20.806-25.784 27.742-26.134 71.945-.18 101.865 12.977 14.96 31.843 22.212 48.241 21.934 16.22-.277 33.675-7.616 51.1-24.794l.563-.557 46.835-48.444c-18.6-18.275-37.388-35.405-56.022-53.11-12.408-11.02-26.862-17.451-41.916-17.694l-.655-.007zm299.51 31.863l-98.965 95.494c14.554 11.752 28.984 16.929 42.55 17.16a56.662 56.662 0 0018.504-2.774c9.939-3.216 19.637-9.26 28.882-18.351 25.181-24.76 26.474-63.648 9.03-91.529zm-98.84-14.094c-18.611 17.682-37.58 34.79-56.158 53.042l38.765 39.922 100.237-96.718c-12.064-9.184-26.998-13.623-39.67-13.925-15.506-.12-30.422 6.353-43.174 17.679z" fill="url(#a)" fill-rule="nonzero"/>
  </g>
</svg>
