<svg viewBox="0 0 1254 510" xmlns="http://www.w3.org/2000/svg">
  <title>eximium</title>
  <defs>
    <linearGradient x1="21.797%" y1="39.102%" x2="78.972%" y2="60.898%" id="a">
      <stop stop-color="#FEADDD" offset="0%"/>
      <stop stop-color="#FF6BC3" offset="18.878%"/>
      <stop stop-color="#9F59E8" offset="47.307%"/>
      <stop stop-color="#568DF1" stop-opacity=".8" offset="82.537%"/>
      <stop stop-color="#B0FEDD" stop-opacity=".8" offset="100%"/>
    </linearGradient>
  </defs>
  <g fill="none" fill-rule="evenodd">
    <rect fill="#040D21" width="1254" height="510" rx="8"/>
    <g fill="#FFF" fill-rule="nonzero">
      <path d="M499.075 338c-15.714 0-28.306-5.03-37.774-15.089C451.767 312.786 447 299.374 447 282.675c0-16.897 4.701-30.342 14.104-40.336 9.468-10.256 21.994-15.384 37.577-15.384 15.188 0 27.122 4.438 35.802 13.313 8.876 8.679 13.314 20.414 13.314 35.207 0 3.814-.361 8.054-1.085 12.722h-74.66c-.066 9.665 2.251 17.127 6.953 22.387 4.7 5.26 11.325 7.89 19.873 7.89 6.246 0 11.605-1.447 16.076-4.34s7.332-6.64 8.58-11.242h24.855c-1.775 10.387-7.233 18.869-16.372 25.443-8.81 6.443-19.791 9.665-32.942 9.665zm-26.826-66.963h50.497c-.132-7.823-2.35-13.888-6.657-18.195-4.307-4.306-10.307-6.46-18-6.46-7.561 0-13.676 2.252-18.345 6.756-4.668 4.504-7.167 10.47-7.495 17.9z"/>
      <path d="M570.772 336.028h-21.18a2 2 0 01-1.655-3.125l33.518-49.319a2 2 0 00.016-2.224l-32.431-49.234a2 2 0 011.67-3.1h21.902a2 2 0 011.7.946l22.03 35.548a1.24 1.24 0 001.054.587 1.23 1.23 0 001.05-.59l21.74-35.535a2 2 0 011.706-.956h21.438a2 2 0 011.68 3.086l-31.618 48.875a2 2 0 00.009 2.186l32.748 49.755a2 2 0 01-1.67 3.1h-22.027a2 2 0 01-1.68-.916l-22.903-35.487a1.267 1.267 0 00-1.065-.58c-.43 0-.832.217-1.069.578l-23.291 35.502a2 2 0 01-1.672.903zm105.784-121.006H655.8a2 2 0 01-2-2V190a2 2 0 012-2h20.756a2 2 0 012 2v23.022a2 2 0 01-2 2zm0 121.006H655.8a2 2 0 01-2-2V231.026a2 2 0 012-2h20.756a2 2 0 012 2v103.002a2 2 0 01-2 2zm46.443 0h-20.953a2 2 0 01-2-2V231.026a2 2 0 012-2h18.074a2 2 0 011.978 1.703l2.448 16.317a2 2 0 001.978 1.704h.151c6.51-14.53 17.063-21.795 31.66-21.795 7.495 0 13.89 1.956 19.183 5.867 5.293 3.912 9.221 9.419 11.786 16.52h1.775c3.222-7.299 7.808-12.854 13.759-16.667 5.95-3.814 12.805-5.72 20.563-5.72 11.178 0 19.84 3.944 25.989 11.834 6.147 7.89 9.221 18.705 9.221 32.446v62.793a2 2 0 01-2 2H837.56a2 2 0 01-2-2v-60.23c0-17.093-6.542-25.64-19.627-25.64-7.496 0-13.2 2.597-17.112 7.79-3.912 5.195-5.868 12.361-5.868 21.5v56.58a2 2 0 01-2 2h-21.249a2 2 0 01-2-2v-60.624c0-16.83-6.476-25.246-19.43-25.246-7.1 0-12.755 2.646-16.963 7.939-4.208 5.292-6.312 12.278-6.312 20.956v56.975a2 2 0 01-2 2zm180.379-121.006h-20.756a2 2 0 01-2-2V190a2 2 0 012-2h20.756a2 2 0 012 2v23.022a2 2 0 01-2 2zm0 121.006h-20.756a2 2 0 01-2-2V231.026a2 2 0 012-2h20.756a2 2 0 012 2v103.002a2 2 0 01-2 2zm96.896-107.002h21.051a2 2 0 012 2v103.002a2 2 0 01-2 2h-18.1a2 2 0 01-1.974-1.673l-2.7-16.28a2 2 0 00-1.973-1.673h-.08c-3.156 6.838-7.758 12.147-13.807 15.927-6.05 3.78-13.216 5.671-21.501 5.671-11.375 0-20.186-3.649-26.432-10.947-6.247-7.298-9.37-17.488-9.37-30.572v-65.455a2 2 0 012-2h21.249a2 2 0 012 2v61.806c0 16.108 6.937 24.162 20.81 24.162 8.153 0 14.663-2.91 19.528-8.728 4.866-5.818 7.299-13.461 7.299-22.929v-54.311a2 2 0 012-2zm66.113 107.002h-20.953a2 2 0 01-2-2V231.026a2 2 0 012-2h18.075a2 2 0 011.978 1.703l2.447 16.317a2 2 0 001.978 1.704h.152c6.51-14.53 17.062-21.795 31.66-21.795 7.495 0 13.89 1.956 19.182 5.867 5.293 3.912 9.222 9.419 11.786 16.52h1.776c3.221-7.299 7.808-12.854 13.758-16.667 5.95-3.814 12.805-5.72 20.564-5.72 11.178 0 19.84 3.944 25.988 11.834s9.222 18.705 9.222 32.446v62.793a2 2 0 01-2 2h-21.051a2 2 0 01-2-2v-60.23c0-17.093-6.543-25.64-19.627-25.64-7.496 0-13.2 2.597-17.112 7.79-3.912 5.195-5.868 12.361-5.868 21.5v56.58a2 2 0 01-2 2h-21.25a2 2 0 01-2-2v-60.624c0-16.83-6.476-25.246-19.429-25.246-7.1 0-12.756 2.646-16.964 7.939-4.208 5.292-6.312 12.278-6.312 20.956v56.975a2 2 0 01-2 2z"/>
    </g>
    <path d="M366.47 203.47l16.097-16.085a2.005 2.005 0 012.83 0l10.59 10.582a1.997 1.997 0 010 2.827L379.9 216.87c25.183 31.603 22.15 77.2-6.45 105.044-15.816 15.014-34.796 22.125-54.567 22.125-15.093 0-33.745-6.005-49.287-16.96l-20.102 20.085a2.006 2.006 0 01-2.83 0l-10.59-10.582a1.997 1.997 0 01-.003-2.827h.003l19.15-19.134c-7.76-7.52-21.517-20.986-31.294-31.267l-.43-.453-38.268 38.223c-17.382 17.398-38.551 26.524-58.521 26.866-19.973.343-37.344-8.442-52.868-23.75-31.951-31.505-31.63-82.951 0-114.61 15.985-15.294 34.851-21.611 53.004-21.611 19.014 0 38.027 2.767 59.418 24.907 5.62 5.742 8.03 8.236 9.983 10.238l.242.247.239.244.236.241.5.51.337.343a511.1 511.1 0 002.268 2.286l.934.934.253.253.534.532.273.273.284.282c3.507 3.494 9.23 9.168 20.383 20.239l.461.458 38.164-37c17.379-17.4 37.344-26.655 57.314-26.996 17.077-.293 33.65 6.046 47.8 17.46zm-239.491 6.237h-.605c-12.292.294-27.267 5.494-37.48 16.484-20.428 21.981-20.705 57.003-.143 80.71 10.28 11.852 25.227 17.597 38.218 17.377 12.828-.219 26.63-6.014 40.412-19.574l.517-.512 37.105-38.382c-14.736-14.48-29.62-28.051-44.382-42.078-9.784-8.69-21.173-13.78-33.038-14.017l-.604-.008zm236.266 23.802l-77.304 77.238c11.473 9.215 22.846 13.278 33.541 13.46a44.886 44.886 0 0014.66-2.198c7.874-2.547 15.558-7.336 22.882-14.539 20.387-20.048 21.01-51.787 6.221-73.96zm-77.373-9.724c-14.744 14.01-29.773 27.564-44.49 42.025l30.871 31.796 77.873-77.808c-9.3-6.591-20.487-9.792-30.05-10.02-12.284-.096-24.101 5.033-34.204 14.007z" fill="url(#a)" fill-rule="nonzero"/>
  </g>
</svg>
