<svg viewBox="0 0 1254 510" xmlns="http://www.w3.org/2000/svg">
  <title>
    banner_mono_light
  </title>
  <g fill="none" fill-rule="evenodd">
    <rect fill="#FFF" width="1254" height="510" rx="8"/>
    <g fill="#040D21" fill-rule="nonzero">
      <path d="M499.075 325c-15.714 0-28.306-5.03-37.774-15.089C451.767 299.786 447 286.374 447 269.675c0-16.897 4.701-30.342 14.104-40.336 9.468-10.256 21.994-15.384 37.577-15.384 15.188 0 27.122 4.438 35.802 13.313 8.876 8.679 13.314 20.414 13.314 35.207 0 3.814-.361 8.054-1.085 12.722h-74.66c-.066 9.665 2.251 17.127 6.953 22.387 4.7 5.26 11.325 7.89 19.873 7.89 6.246 0 11.605-1.447 16.076-4.34s7.332-6.64 8.58-11.242h24.855c-1.775 10.387-7.233 18.869-16.372 25.443-8.81 6.443-19.791 9.665-32.942 9.665zm-26.826-66.963h50.497c-.132-7.823-2.35-13.888-6.657-18.195-4.307-4.306-10.307-6.46-18-6.46-7.561 0-13.676 2.252-18.345 6.756-4.668 4.504-7.167 10.47-7.495 17.9z"/>
      <path d="M570.772 323.028h-21.18a2 2 0 01-1.655-3.125l33.518-49.319a2 2 0 00.016-2.224l-32.431-49.234a2 2 0 011.67-3.1h21.902a2 2 0 011.7.946l22.03 35.548a1.24 1.24 0 001.054.587 1.23 1.23 0 001.05-.59l21.74-35.535a2 2 0 011.706-.956h21.438a2 2 0 011.68 3.086l-31.618 48.875a2 2 0 00.009 2.186l32.748 49.755a2 2 0 01-1.67 3.1h-22.027a2 2 0 01-1.68-.916l-22.903-35.487a1.267 1.267 0 00-1.065-.58c-.43 0-.832.217-1.069.578l-23.291 35.502a2 2 0 01-1.672.903zm105.784-121.006H655.8a2 2 0 01-2-2V177a2 2 0 012-2h20.756a2 2 0 012 2v23.022a2 2 0 01-2 2zm0 121.006H655.8a2 2 0 01-2-2V218.026a2 2 0 012-2h20.756a2 2 0 012 2v103.002a2 2 0 01-2 2zm46.443 0h-20.953a2 2 0 01-2-2V218.026a2 2 0 012-2h18.074a2 2 0 011.978 1.703l2.448 16.317a2 2 0 001.978 1.704h.151c6.51-14.53 17.063-21.795 31.66-21.795 7.495 0 13.89 1.956 19.183 5.867 5.293 3.912 9.221 9.419 11.786 16.52h1.775c3.222-7.299 7.808-12.854 13.759-16.667 5.95-3.814 12.805-5.72 20.563-5.72 11.178 0 19.84 3.944 25.989 11.834 6.147 7.89 9.221 18.705 9.221 32.446v62.793a2 2 0 01-2 2H837.56a2 2 0 01-2-2v-60.23c0-17.093-6.542-25.64-19.627-25.64-7.496 0-13.2 2.597-17.112 7.79-3.912 5.195-5.868 12.361-5.868 21.5v56.58a2 2 0 01-2 2h-21.249a2 2 0 01-2-2v-60.624c0-16.83-6.476-25.246-19.43-25.246-7.1 0-12.755 2.646-16.963 7.939-4.208 5.292-6.312 12.278-6.312 20.956v56.975a2 2 0 01-2 2zm180.379-121.006h-20.756a2 2 0 01-2-2V177a2 2 0 012-2h20.756a2 2 0 012 2v23.022a2 2 0 01-2 2zm0 121.006h-20.756a2 2 0 01-2-2V218.026a2 2 0 012-2h20.756a2 2 0 012 2v103.002a2 2 0 01-2 2zm96.896-107.002h21.051a2 2 0 012 2v103.002a2 2 0 01-2 2h-18.1a2 2 0 01-1.974-1.673l-2.7-16.28a2 2 0 00-1.973-1.673h-.08c-3.156 6.838-7.758 12.147-13.807 15.927-6.05 3.78-13.216 5.671-21.501 5.671-11.375 0-20.186-3.649-26.432-10.947-6.247-7.298-9.37-17.488-9.37-30.572v-65.455a2 2 0 012-2h21.249a2 2 0 012 2v61.806c0 16.108 6.937 24.162 20.81 24.162 8.153 0 14.663-2.91 19.528-8.728 4.866-5.818 7.299-13.461 7.299-22.929v-54.311a2 2 0 012-2zm66.113 107.002h-20.953a2 2 0 01-2-2V218.026a2 2 0 012-2h18.075a2 2 0 011.978 1.703l2.447 16.317a2 2 0 001.978 1.704h.152c6.51-14.53 17.062-21.795 31.66-21.795 7.495 0 13.89 1.956 19.182 5.867 5.293 3.912 9.222 9.419 11.786 16.52h1.776c3.221-7.299 7.808-12.854 13.758-16.667 5.95-3.814 12.805-5.72 20.564-5.72 11.178 0 19.84 3.944 25.988 11.834s9.222 18.705 9.222 32.446v62.793a2 2 0 01-2 2h-21.051a2 2 0 01-2-2v-60.23c0-17.093-6.543-25.64-19.627-25.64-7.496 0-13.2 2.597-17.112 7.79-3.912 5.195-5.868 12.361-5.868 21.5v56.58a2 2 0 01-2 2h-21.25a2 2 0 01-2-2v-60.624c0-16.83-6.476-25.246-19.429-25.246-7.1 0-12.756 2.646-16.964 7.939-4.208 5.292-6.312 12.278-6.312 20.956v56.975a2 2 0 01-2 2z"/>
    </g>
    <path d="M385.256 173.585l10.596 10.518a2 2 0 01.01 2.829l-.01.01-16.412 16.293c25.679 31.4 22.782 77.055-5.99 104.868-15.816 14.908-34.796 21.97-54.567 21.97-15.275 0-34.195-6.108-49.847-17.238l-19.413 19.272a2 2 0 01-2.818 0l-10.596-10.519a2 2 0 010-2.838l18.631-18.496-.705-.704-1.931-1.932c-4.298-4.303-9.68-9.715-15.081-15.202l-1.519-1.544c-4.108-4.183-8.17-8.352-11.71-12.05l-.702-.734-37.96 39.23c-17.382 17.276-38.551 26.337-58.521 26.677-19.973.34-37.344-8.382-52.868-23.583-31.951-31.282-31.63-82.364 0-113.798 15.985-15.186 34.72-19.362 52.868-19.54 23.02-.227 42.705 6.276 59.109 22.753 13.5 13.29 18.953 18.724 23.134 22.882l.287.285.282.281.28.278.14.138.275.275.138.136.273.272.137.135.461.458.23.229.463.458.43.425a1701.68 1701.68 0 0010.423 10.216l.42.409 38.163-36.74C278.735 182.69 298.7 173.5 318.67 173.16c16.838-.287 33.188 5.829 47.207 16.865l16.561-16.44a2 2 0 012.818 0zM126.98 196.689h-.605c-12.292.292-27.267 5.456-37.48 16.368-20.428 21.826-20.705 56.6-.143 80.139 10.28 11.769 25.227 17.473 38.218 17.255 12.826-.218 26.626-5.97 40.406-19.43l.523-.514 37.105-38.111c-14.736-14.377-29.62-27.853-44.382-41.781-9.784-8.629-21.173-13.682-33.038-13.918l-.604-.008zm235.855 23.03l-77.429 76.865c11.655 9.455 23.216 13.613 34.077 13.797a45.18 45.18 0 0014.66-2.183c7.874-2.53 15.558-7.285 22.882-14.436 20.574-20.09 21.019-52 5.81-74.042zm-76.962-9.051c-14.744 13.91-29.773 27.369-44.49 41.728l30.375 31.064 77.747-77.182c-9.174-6.253-20.078-9.297-29.428-9.519-12.284-.094-24.101 4.999-34.204 13.909z" fill="#040D21" fill-rule="nonzero"/>
  </g>
</svg>
