<svg viewBox="0 0 1254 510" xmlns="http://www.w3.org/2000/svg">
  <title>
    banner_mono_dark
  </title>
  <g fill="none" fill-rule="evenodd">
    <rect fill="#040D21" width="1254" height="510" rx="8"/>
    <g fill="#FFF" fill-rule="nonzero">
      <path d="M499.075 324c-15.714 0-28.306-5.03-37.774-15.089C451.767 298.786 447 285.374 447 268.675c0-16.897 4.701-30.342 14.104-40.336 9.468-10.256 21.994-15.384 37.577-15.384 15.188 0 27.122 4.438 35.802 13.313 8.876 8.679 13.314 20.414 13.314 35.207 0 3.814-.361 8.054-1.085 12.722h-74.66c-.066 9.665 2.251 17.127 6.953 22.387 4.7 5.26 11.325 7.89 19.873 7.89 6.246 0 11.605-1.447 16.076-4.34s7.332-6.64 8.58-11.242h24.855c-1.775 10.387-7.233 18.869-16.372 25.443-8.81 6.443-19.791 9.665-32.942 9.665zm-26.826-66.963h50.497c-.132-7.823-2.35-13.888-6.657-18.195-4.307-4.306-10.307-6.46-18-6.46-7.561 0-13.676 2.252-18.345 6.756-4.668 4.504-7.167 10.47-7.495 17.9z"/>
      <path d="M570.772 322.028h-21.18a2 2 0 01-1.655-3.125l33.518-49.319a2 2 0 00.016-2.224l-32.431-49.234a2 2 0 011.67-3.1h21.902a2 2 0 011.7.946l22.03 35.548a1.24 1.24 0 001.054.587 1.23 1.23 0 001.05-.59l21.74-35.535a2 2 0 011.706-.956h21.438a2 2 0 011.68 3.086l-31.618 48.875a2 2 0 00.009 2.186l32.748 49.755a2 2 0 01-1.67 3.1h-22.027a2 2 0 01-1.68-.916l-22.903-35.487a1.267 1.267 0 00-1.065-.58c-.43 0-.832.217-1.069.578l-23.291 35.502a2 2 0 01-1.672.903zm105.784-121.006H655.8a2 2 0 01-2-2V176a2 2 0 012-2h20.756a2 2 0 012 2v23.022a2 2 0 01-2 2zm0 121.006H655.8a2 2 0 01-2-2V217.026a2 2 0 012-2h20.756a2 2 0 012 2v103.002a2 2 0 01-2 2zm46.443 0h-20.953a2 2 0 01-2-2V217.026a2 2 0 012-2h18.074a2 2 0 011.978 1.703l2.448 16.317a2 2 0 001.978 1.704h.151c6.51-14.53 17.063-21.795 31.66-21.795 7.495 0 13.89 1.956 19.183 5.867 5.293 3.912 9.221 9.419 11.786 16.52h1.775c3.222-7.299 7.808-12.854 13.759-16.667 5.95-3.814 12.805-5.72 20.563-5.72 11.178 0 19.84 3.944 25.989 11.834 6.147 7.89 9.221 18.705 9.221 32.446v62.793a2 2 0 01-2 2H837.56a2 2 0 01-2-2v-60.23c0-17.093-6.542-25.64-19.627-25.64-7.496 0-13.2 2.597-17.112 7.79-3.912 5.195-5.868 12.361-5.868 21.5v56.58a2 2 0 01-2 2h-21.249a2 2 0 01-2-2v-60.624c0-16.83-6.476-25.246-19.43-25.246-7.1 0-12.755 2.646-16.963 7.939-4.208 5.292-6.312 12.278-6.312 20.956v56.975a2 2 0 01-2 2zm180.379-121.006h-20.756a2 2 0 01-2-2V176a2 2 0 012-2h20.756a2 2 0 012 2v23.022a2 2 0 01-2 2zm0 121.006h-20.756a2 2 0 01-2-2V217.026a2 2 0 012-2h20.756a2 2 0 012 2v103.002a2 2 0 01-2 2zm96.896-107.002h21.051a2 2 0 012 2v103.002a2 2 0 01-2 2h-18.1a2 2 0 01-1.974-1.673l-2.7-16.28a2 2 0 00-1.973-1.673h-.08c-3.156 6.838-7.758 12.147-13.807 15.927-6.05 3.78-13.216 5.671-21.501 5.671-11.375 0-20.186-3.649-26.432-10.947-6.247-7.298-9.37-17.488-9.37-30.572v-65.455a2 2 0 012-2h21.249a2 2 0 012 2v61.806c0 16.108 6.937 24.162 20.81 24.162 8.153 0 14.663-2.91 19.528-8.728 4.866-5.818 7.299-13.461 7.299-22.929v-54.311a2 2 0 012-2zm66.113 107.002h-20.953a2 2 0 01-2-2V217.026a2 2 0 012-2h18.075a2 2 0 011.978 1.703l2.447 16.317a2 2 0 001.978 1.704h.152c6.51-14.53 17.062-21.795 31.66-21.795 7.495 0 13.89 1.956 19.182 5.867 5.293 3.912 9.222 9.419 11.786 16.52h1.776c3.221-7.299 7.808-12.854 13.758-16.667 5.95-3.814 12.805-5.72 20.564-5.72 11.178 0 19.84 3.944 25.988 11.834s9.222 18.705 9.222 32.446v62.793a2 2 0 01-2 2h-21.051a2 2 0 01-2-2v-60.23c0-17.093-6.543-25.64-19.627-25.64-7.496 0-13.2 2.597-17.112 7.79-3.912 5.195-5.868 12.361-5.868 21.5v56.58a2 2 0 01-2 2h-21.25a2 2 0 01-2-2v-60.624c0-16.83-6.476-25.246-19.429-25.246-7.1 0-12.756 2.646-16.964 7.939-4.208 5.292-6.312 12.278-6.312 20.956v56.975a2 2 0 01-2 2z"/>
    </g>
    <path d="M385.395 172.584l10.588 10.566a2 2 0 01.003 2.829l-.003.003-16.53 16.496c25.665 31.584 22.764 77.496-6.002 105.468-15.817 14.995-34.797 22.098-54.568 22.098-15.282 0-34.214-6.15-49.87-17.354l-19.521 19.48a2 2 0 01-2.826 0l-10.588-10.567a2 2 0 01-.003-2.829l.003-.003 18.639-18.6a1720.855 1720.855 0 01-15.568-15.265l-.712-.708-1.07-1.066-1.507-1.507-.501-.503-1.002-1.006a712.467 712.467 0 01-10.148-10.39l-.709-.745-38.268 38.176c-17.382 17.377-38.551 26.491-58.521 26.833-19.973.343-37.344-8.431-52.868-23.722-31.951-31.465-31.63-82.848 0-114.467 15.985-15.275 34.851-21.585 53.004-21.585 19.014 0 38.027 2.764 59.418 24.876 5.62 5.735 8.03 8.227 9.983 10.226l.242.247.12.122.237.242.118.12.5.51a452.84 452.84 0 002.39 2.41l.667.667.226.226.475.473c3.39 3.38 9.078 9.011 21.517 21.343l.452.449 38.164-36.955c17.379-17.377 37.344-26.621 57.314-26.962 16.854-.29 33.217 5.874 47.245 16.994l16.654-16.62a2 2 0 012.826 0zm-258.416 23.293h-.605c-12.292.294-27.267 5.488-37.48 16.465-20.428 21.953-20.705 56.932-.143 80.609 10.28 11.838 25.227 17.576 38.218 17.356 12.828-.218 26.63-6.006 40.412-19.55l.517-.51 37.105-38.336c-14.736-14.46-29.62-28.016-44.382-42.026-9.784-8.68-21.173-13.762-33.038-14l-.604-.008zm235.863 23.178l-77.453 77.292c11.66 9.519 23.227 13.705 34.093 13.89a44.937 44.937 0 0014.66-2.195c7.874-2.545 15.558-7.328 22.882-14.522 20.57-20.203 21.019-52.295 5.818-74.465zm-42.766-23.107c-12.284-.095-24.101 5.028-34.204 13.99-14.744 13.992-29.773 27.53-44.49 41.973l30.379 31.25 77.777-77.615c-9.181-6.306-20.1-9.375-29.462-9.598z" fill="#FFF" fill-rule="nonzero"/>
  </g>
</svg>
